<?xml version="1.0" encoding="UTF-8" standalone="no"?>
<svg
   xmlns:dc="http://purl.org/dc/elements/1.1/"
   xmlns:cc="http://creativecommons.org/ns#"
   xmlns:rdf="http://www.w3.org/1999/02/22-rdf-syntax-ns#"
   xmlns:svg="http://www.w3.org/2000/svg"
   xmlns="http://www.w3.org/2000/svg"
   viewBox="0 0 793.70667 1122.52"
   height="1122.52"
   width="793.70667"
   xml:space="preserve"
   id="svg10"
   version="1.1"><metadata
     id="metadata16"><rdf:RDF><cc:Work
         rdf:about=""><dc:format>image/svg+xml</dc:format><dc:type
           rdf:resource="http://purl.org/dc/dcmitype/StillImage" /><dc:title></dc:title></cc:Work></rdf:RDF></metadata><defs
     id="defs14"><clipPath
       id="clipPath26"
       clipPathUnits="userSpaceOnUse"><path
         id="path24"
         d="M 0,841.89 H 595.28 V 0 H 0 Z" /></clipPath><clipPath
       id="clipPath42"
       clipPathUnits="userSpaceOnUse"><path
         id="path40"
         d="m 177.33,664.384 c 0,-30.194 -25.331,-55.526 -55.524,-55.526 v 0 -85.12 c 0,-138.611 62.77,-258.499 179.127,-333.828 v 0 C 417.288,265.239 480.06,386.857 480.06,525.469 v 0 83.389 c -30.194,0 -55.525,25.332 -55.525,55.526 v 0 z" /></clipPath><clipPath
       id="clipPath54"
       clipPathUnits="userSpaceOnUse"><path
         id="path52"
         d="M 0,841.89 H 595.28 V 0 H 0 Z" /></clipPath></defs><g
     transform="matrix(1.3333333,0,0,-1.3333333,0,1122.52)"
     id="g18"><g
       id="g20"><g
         clip-path="url(#clipPath26)"
         id="g22"><g
           transform="translate(495.749,526.2596)"
           id="g28"><path
             id="path30"
             style="fill:#140e0c;fill-opacity:1;fill-rule:nonzero;stroke:none"
             d="m 0,0 c 0,-71.311 -18.01,-142.117 -52.08,-204.761 -33.911,-62.351 -83.252,-115.737 -142.737,-154.449 -59.484,38.712 -108.825,92.098 -142.736,154.447 -34.07,62.645 -52.08,133.451 -52.08,204.762 v 92.309 c 31.347,0.816 56.697,26.166 57.513,57.513 H -57.513 C -56.697,118.474 -31.348,93.124 0,92.308 Z m 1.557,95.402 c -30.866,0 -55.976,25.11 -55.976,55.975 v 1.558 h -280.795 v -1.558 c 0,-30.865 -25.11,-55.975 -55.975,-55.975 h -1.558 V -10e-4 c 0,-71.83 18.14,-143.15 52.459,-206.249 34.318,-63.1 84.329,-117.086 144.626,-156.122 l 0.846,-0.548 0.846,0.548 c 60.297,39.036 110.307,93.022 144.625,156.122 34.32,63.1 52.458,134.42 52.458,206.25 v 95.402 z" /></g><g
           transform="translate(473.6641,526.2572)"
           id="g32"><path
             id="path34"
             style="fill:#140e0c;fill-opacity:1;fill-rule:nonzero;stroke:none"
             d="m 0,0 c 0,-132.571 -64.489,-256.551 -172.731,-332.553 -108.242,76 -172.731,199.981 -172.731,332.553 v 73.722 c 25.658,7.854 46.162,28.359 54.017,54.018 H -54.019 C -46.163,102.08 -25.659,81.576 0,73.722 Z m 7.871,84.834 c -24.935,5.909 -44.867,25.84 -50.776,50.776 l -1.166,4.922 h -257.321 l -1.166,-4.922 c -5.909,-24.936 -25.839,-44.867 -50.775,-50.776 l -4.921,-1.166 V 0 c 0,-138.264 68.001,-267.464 181.904,-345.612 l 3.619,-2.484 3.619,2.484 C -55.209,-267.464 12.793,-138.263 12.793,0 v 83.668 z" /></g></g></g><g
       id="g36"><g
         clip-path="url(#clipPath42)"
         id="g38"><g
           transform="translate(528.9746,350.1547)"
           id="g44"><path
             id="path46"
             style="fill:#140e0c;fill-opacity:1;fill-rule:nonzero;stroke:none"
             d="M 0,0 13.576,-115.366 -38.631,-176 Z M -42.567,-179.415 -164.282,-119.539 -1.973,5.535 Z m -178.051,-52.503 22.566,45.871 31.058,63.132 0.136,-0.199 0.461,1.144 120.628,-59.34 z m -3.417,0.108 -86.22,81.741 140.25,28.09 -30.117,-61.22 z m -129.539,-61.358 -88.065,123.207 213.714,-64.741 z m -33.121,277.667 58.341,-109.153 12.42,-23.239 -127.253,-17.357 z m -114.795,61.852 111.336,44.57 1.616,-100.139 z m 25.48,132.275 84.611,-84.849 -111.794,-44.756 z m -120.802,46.227 201.398,71.629 -82.109,-112.865 z m 204.119,70.076 2.455,-197.908 -84.664,84.906 z m -118.11,65.281 138.62,78.001 -20.239,-136.237 z m 141.66,77.269 101.02,-120.204 -121.228,-15.828 z m 159.686,-4.741 -55.988,-113.811 -101.263,120.494 z m 1.861,-3.272 32.887,-155.213 -88.171,42.504 0.792,1.305 -0.333,-0.043 z m 124.401,-165.248 -87.905,8.68 -0.233,2.46 -0.341,-0.412 -32.325,152.565 z m -8.305,111.418 2.522,-28.358 7.079,-79.577 -120.044,162.266 z m 104.871,-51.59 -91.905,-59.022 -7.193,80.85 -2.503,28.153 z M 35.819,203.683 -54.814,137.397 -77.753,259.553 Z M -101.918,37.586 -55.952,131.027 -2.288,11.703 Z m -21.117,-52.01 19.81,49.133 L -3.004,8.67 -163.628,-115.105 Z m -117.914,5.43 1.873,0.056 -1.274,0.886 133.513,42.133 -28.792,-71.412 -31.939,-79.218 z m -2.672,-1.61 73.798,-108.165 -140.892,-28.217 z m -69.828,-141.939 0.406,0.825 83.623,-79.279 -208.869,63.272 123.921,16.903 z m 67.072,143.389 -67.186,-136.569 -14.05,26.287 -56.768,106.214 z m -2.225,3.05 -136.806,-4.031 -1.618,100.327 z m -92.267,202.618 -0.272,-0.029 0.846,-1.313 -1.119,-1.844 0.317,0.032 -46.059,-93.625 -2.398,193.196 z m 28.235,44.246 -25.7,-42.356 -50.479,99.971 120.699,15.76 z m 84.364,-32.667 -98.387,-10.118 -8.846,-0.91 25.77,42.473 44.264,72.952 z m 2.68,1.755 -36.77,103.2 87.363,-42.113 z m 64.505,-75.652 -51.081,58.833 -11.93,13.741 50.37,60.819 z m -7.754,135.348 87.544,-8.643 0.114,-1.277 0.22,0.141 22.464,-119.623 z m 109.713,-133.464 -98.542,-4.942 -12.846,135.573 z m -97.3,-7.997 97.973,4.912 -45.83,-93.162 z m -116.254,-27.149 112.846,26.795 52.099,-88.177 z m -2.908,-2.238 166.639,-62.014 -133.873,-42.249 z m -5.036,0.819 -0.259,-0.529 1.804,0.429 32.39,-103.057 -137.443,95.616 z m -0.132,3.111 -105.282,-7.668 47.76,97.079 z m 54.982,101.328 12.308,-14.177 51.528,-59.348 -113.234,-26.887 z m -52.434,-99.53 -57.569,89.483 107.001,11.001 z M -0.118,14.472 -53.95,134.17 36.516,200.335 Z M 39.358,198.655 98.577,58.464 2.596,12.137 Z M 2.142,8.458 102.6,56.947 40.434,204.112 l 0.678,3.442 -2.457,-1.797 -115.35,56.747 96.389,61.9 -111.517,54.862 v -0.001 l -113.817,55.991 -0.776,3.663 -1.299,-2.642 -4.353,2.142 1.873,-2.532 -159.23,6.767 -1.783,2.122 -0.396,-2.665 -145.876,-82.087 122.289,-60.157 -211.029,-75.055 127.472,-44.068 -27.919,-133.114 -2.471,-0.989 120.243,-59.153 -57.614,-152.722 -2.984,0.903 2.177,-3.044 -0.629,-1.667 1.658,0.227 91.683,-128.267 130.729,60.828 0.766,-0.726 0.63,1.279 178.923,51.789 -0.759,-3.464 3.719,4.32 3.418,0.99 -1.802,0.886 55.807,64.82 z" /></g></g></g><g
       id="g48"><g
         clip-path="url(#clipPath54)"
         id="g50"><g
           transform="translate(192.3701,559.6239)"
           id="g56"><path
             id="path58"
             style="fill:#140e0c;fill-opacity:1;fill-rule:nonzero;stroke:none"
             d="m 0,0 c -7.37,0 -13.345,-5.975 -13.345,-13.345 0,-7.37 5.975,-13.344 13.345,-13.344 7.37,0 13.345,5.974 13.345,13.344 C 13.345,-5.975 7.37,0 0,0" /></g><g
           transform="translate(250.0474,463.8798)"
           id="g60"><path
             id="path62"
             style="fill:#140e0c;fill-opacity:1;fill-rule:nonzero;stroke:none"
             d="m 0,0 c -7.37,0 -13.345,-5.975 -13.345,-13.345 0,-7.37 5.975,-13.344 13.345,-13.344 7.37,0 13.345,5.974 13.345,13.344 C 13.345,-5.975 7.37,0 0,0" /></g><g
           transform="translate(370.6709,621.8363)"
           id="g64"><path
             id="path66"
             style="fill:#140e0c;fill-opacity:1;fill-rule:nonzero;stroke:none"
             d="m 0,0 c 0,7.37 -5.974,13.345 -13.344,13.345 -7.37,0 -13.344,-5.975 -13.344,-13.345 0,-7.37 5.974,-13.345 13.344,-13.345 C -5.974,-13.345 0,-7.37 0,0" /></g><g
           transform="translate(370.6709,493.2953)"
           id="g68"><path
             id="path70"
             style="fill:#140e0c;fill-opacity:1;fill-rule:nonzero;stroke:none"
             d="m 0,0 c -7.369,0 -13.344,-5.975 -13.344,-13.345 0,-7.37 5.975,-13.344 13.344,-13.344 7.37,0 13.345,5.974 13.345,13.344 C 13.345,-5.975 7.37,0 0,0" /></g><g
           transform="translate(423.6416,398.9047)"
           id="g72"><path
             id="path74"
             style="fill:#140e0c;fill-opacity:1;fill-rule:nonzero;stroke:none"
             d="m 0,0 c -7.369,0 -13.345,-5.975 -13.345,-13.345 0,-7.369 5.976,-13.343 13.345,-13.343 7.37,0 13.345,5.974 13.345,13.343 C 13.345,-5.975 7.37,0 0,0" /></g><g
           transform="translate(286.644,355.0365)"
           id="g76"><path
             id="path78"
             style="fill:#140e0c;fill-opacity:1;fill-rule:nonzero;stroke:none"
             d="m 0,0 c -7.352,-0.521 -12.889,-6.902 -12.368,-14.254 0.521,-7.351 6.903,-12.889 14.255,-12.368 7.352,0.521 12.889,6.903 12.367,14.255 C 13.734,-5.016 7.352,0.521 0,0" /></g><g
           transform="translate(303.6895,570.5824)"
           id="g80"><path
             id="path82"
             style="fill:#140e0c;fill-opacity:1;fill-rule:nonzero;stroke:none"
             d="m 0,0 c -7.37,0 -13.345,-5.975 -13.345,-13.345 0,-7.369 5.975,-13.344 13.345,-13.344 7.37,0 13.345,5.975 13.345,13.344 C 13.345,-5.975 7.37,0 0,0" /></g></g></g></g></svg>